<svg xmlns="http://www.w3.org/2000/svg" viewBox="0 0 467.1 537.8"><defs><style>.a{fill:#378cbf;}.b{fill:#005a96;}.c{fill:#a39274;}.d{fill:#8e7e64;stroke:#000;stroke-miterlimit:10;stroke-width:5px;opacity:0.25;}</style></defs><title>Logo</title><path class="a" d="M585.4,55c-15.9-.1-31.8.3-47.7.2l-23.3-.3c-6-.1-12.6.6-18.7-.4a5,5,0,0,1-2,.5h-1L321.9,400.8l25.5,12.6c26.4.4,52.8.9,79.1.9l.6-.8L604.1,55.2Z" transform="translate(-136.9 -37.2)"/><path class="b" d="M231,37.3l5.9-.2Z" transform="translate(-136.9 -37.2)"/><path class="b" d="M247.4,54l-92.6-.3a5,5,0,0,1-2.4.7c-4.7.1-9.3.1-13.9,0a2.8,2.8,0,0,0-1.2,3.7L314.9,413c37.2.2,74.4,1.2,111.7,1.2l.7-.9Z" transform="translate(-136.9 -37.2)"/><circle class="c" cx="233.1" cy="439.8" r="98"/><polygon class="d" points="233.1 384.8 251 421.1 291.1 427 262.1 455.3 269 495.2 233.1 476.4 197.2 495.2 204 455.3 175 427 215.1 421.1 233.1 384.8"/></svg>